<?xml version="1.0" encoding="utf-8"?>
<!-- Generator: Adobe Illustrator 16.0.0, SVG Export Plug-In . SVG Version: 6.00 Build 0)  -->
<!DOCTYPE svg PUBLIC "-//W3C//DTD SVG 1.1//EN" "http://www.w3.org/Graphics/SVG/1.1/DTD/svg11.dtd">
<svg version="1.1" id="Layer_1" xmlns="http://www.w3.org/2000/svg" xmlns:xlink="http://www.w3.org/1999/xlink" x="0px" y="0px"
	 width="313px" height="75px" viewBox="0 0 313 75" enable-background="new 0 0 313 75" xml:space="preserve">
<rect y="-2" fill="#FFFFFF" width="313" height="79"/>
<g>
	<path fill="#0F80AE" d="M87.99,24.2l-1.788,3.596c-0.969-0.969-2.531-1.458-4.679-1.458c-2.043,0-3.716,0.858-5.018,2.568
		c-1.305,1.712-1.96,3.877-1.96,6.499c0,2.616,0.609,4.7,1.817,6.235c1.211,1.536,2.822,2.305,4.841,2.305
		c2.307,0,4.113-0.824,5.418-2.471l2.021,3.508c-1.772,1.887-4.368,2.828-7.79,2.828c-3.422,0-6.08-1.129-7.975-3.379
		c-1.897-2.25-2.843-5.322-2.843-9.212c0-3.625,1.051-6.651,3.15-9.089c2.102-2.435,4.792-3.651,8.071-3.651
		C84.061,22.48,86.309,23.052,87.99,24.2"/>
	<path fill="#0F80AE" d="M93.392,34.944c0,2.866,0.489,5.08,1.453,6.649c0.972,1.57,2.38,2.355,4.228,2.355
		c2.172,0,3.83-0.77,4.97-2.304c1.141-1.538,1.713-3.771,1.713-6.701c0-5.734-2.118-8.603-6.348-8.603
		c-1.939,0-3.427,0.779-4.462,2.331C93.912,30.226,93.392,32.317,93.392,34.944 M88.884,34.944c0-3.481,0.954-6.434,2.863-8.843
		c1.911-2.414,4.462-3.617,7.661-3.617c3.518,0,6.205,1.092,8.068,3.274c1.861,2.183,2.791,5.244,2.791,9.186
		c0,3.942-0.972,7.073-2.916,9.392c-1.941,2.314-4.703,3.474-8.278,3.474c-3.287,0-5.803-1.147-7.559-3.44
		C89.76,42.072,88.884,38.934,88.884,34.944"/>
	<polygon fill="#0F80AE" points="128.608,47.724 116.518,31.964 116.518,47.404 112.266,47.404 112.266,22.472 114.392,22.472 
		126.16,37.507 126.16,22.472 130.411,22.472 130.411,47.724 	"/>
	<polygon fill="#0F80AE" points="144.151,26.438 144.151,47.393 139.736,47.393 139.736,26.438 131.824,26.438 131.824,22.516 
		152.419,22.516 152.419,26.438 	"/>
	<polygon fill="#0F80AE" points="158.832,26.445 158.832,32.269 167.047,32.269 167.047,36.019 158.832,36.019 158.832,43.473 
		170.104,43.473 170.104,47.395 154.42,47.395 154.42,22.524 170.291,22.524 170.291,26.445 	"/>
	<polygon fill="#0F80AE" points="197.138,47.404 192.855,47.404 190.27,33.971 185.255,47.725 183.675,47.725 178.66,33.971 
		175.971,47.404 171.703,47.404 176.719,22.48 179.068,22.48 184.457,39.262 189.727,22.48 192.058,22.48 	"/>
	<path fill="#0F80AE" d="M269.705,30.003l-2.951,9.073h5.904L269.705,30.003z M275.727,47.394l-1.796-4.981h-8.418l-1.71,4.981
		h-4.846l9.793-24.903h1.91l9.881,24.903H275.727z"/>
	<path fill="#E44611" d="M62.339,21.929c-1.138-1.478-2.485-2.828-4.058-3.991c-5.28-3.902-11.817-4.869-17.684-3.226l1.532,4.86
		c4.366-1.177,9.207-0.442,13.131,2.457c1.08,0.794,2.013,1.718,2.82,2.718L62.339,21.929z"/>
	<path fill="#E44611" d="M39.355,15.108c-3.739,1.31-7.14,3.705-9.665,7.126c-2.491,3.37-3.779,7.25-3.968,11.143l5.099,0.044
		c0.172-2.854,1.131-5.692,2.957-8.165c1.864-2.525,4.365-4.295,7.108-5.291L39.355,15.108z"/>
	<path fill="#E44611" d="M25.705,34.68c0.091,6.16,2.942,12.203,8.28,16.146c1.58,1.166,3.281,2.062,5.036,2.715l1.719-4.789
		c-1.302-0.485-2.56-1.15-3.733-2.018c-3.976-2.932-6.103-7.424-6.208-12.011L25.705,34.68z"/>
	<path fill="#E44611" d="M40.257,53.953c7.855,2.357,16.649-0.185,21.962-6.971l-4.055-3.083c-3.937,4.981-10.373,6.886-16.182,5.25
		L40.257,53.953z"/>
	<path fill="#E44611" d="M63.098,22.99l-4.243,2.81c3.39,5.023,3.572,11.759,0.072,17.042l4.06,3.086
		C67.827,38.863,67.647,29.769,63.098,22.99"/>
	<path fill="#EA703A" d="M56.937,25.544c-0.756-0.926-1.631-1.781-2.645-2.518c-3.533-2.549-7.855-3.189-11.765-2.146l1.043,3.312
		c2.897-0.726,6.078-0.232,8.688,1.651c0.668,0.481,1.239,1.04,1.755,1.637L56.937,25.544z"/>
	<path fill="#EA703A" d="M41.311,21.259c-2.524,0.923-4.812,2.574-6.502,4.915c-1.599,2.216-2.437,4.74-2.595,7.277l3.481,0.031
		c0.151-1.841,0.765-3.67,1.927-5.275c1.237-1.715,2.902-2.919,4.738-3.622L41.311,21.259z"/>
	<path fill="#EA703A" d="M32.191,34.725c0.118,4.193,2.1,8.289,5.765,10.934c1.031,0.746,2.138,1.316,3.275,1.74l1.175-3.271
		c-0.843-0.32-1.656-0.732-2.419-1.283c-2.715-1.961-4.199-4.98-4.323-8.089L32.191,34.725z"/>
	<path fill="#EA703A" d="M42.444,47.787c5.248,1.436,11.031-0.299,14.581-4.764l-2.767-2.104c-2.613,3.232-6.786,4.521-10.633,3.576
		L42.444,47.787z"/>
	<path fill="#EA703A" d="M57.696,26.569l-2.893,1.915c2.264,3.354,2.435,7.827,0.201,11.402l2.77,2.105
		C60.926,37.196,60.75,31.117,57.696,26.569"/>
	<path fill="#6F6F6E" d="M279.854,58.75c0-0.904-0.528-1.527-1.711-1.964l-0.67-0.249c-1.154-0.421-1.435-0.795-1.435-1.294
		c0-0.606,0.452-1.013,1.558-1.013c0.64,0,1.201,0.141,1.729,0.39l0.343-0.871c-0.669-0.28-1.23-0.403-2.056-0.403
		c-1.574,0-2.554,0.715-2.554,2.039c0,0.826,0.481,1.448,1.711,1.899l0.672,0.25c1.152,0.437,1.387,0.778,1.387,1.401
		c0,0.732-0.607,1.231-1.621,1.231c-0.779,0-1.324-0.125-2.07-0.468l-0.312,0.889c0.793,0.355,1.462,0.465,2.382,0.465
		C278.874,61.053,279.854,60.307,279.854,58.75 M270.635,57.066c0,2.275-0.701,3.117-2.197,3.117c-1.34,0-2.057-0.764-2.057-2.883
		c0-2.291,0.701-3.086,2.182-3.086C269.902,54.215,270.635,54.963,270.635,57.066 M271.631,57.051c0-2.539-1.043-3.705-3.146-3.705
		c-1.964,0-3.099,1.383-3.099,3.986c0,2.555,1.025,3.721,3.129,3.721C270.495,61.053,271.631,59.652,271.631,57.051 M263.126,53.641
		c-0.25-0.156-0.639-0.279-1.168-0.279c-0.592,0-1.215,0.326-1.667,1.166V53.5h-0.994v7.396h0.994v-5.311
		c0.467-0.889,1.012-1.324,1.557-1.324c0.483,0,0.701,0.047,1.014,0.219L263.126,53.641z M254.623,56.508h-3.771
		c0.078-1.498,0.811-2.293,1.965-2.293C253.953,54.215,254.545,55.12,254.623,56.508 M255.665,57.331
		c0-2.522-0.731-3.985-2.849-3.985c-1.762,0-3.006,1.182-3.006,3.768c0,2.633,1.197,3.939,3.099,3.939
		c1.075,0,1.854-0.248,2.601-0.761l-0.42-0.765c-0.576,0.422-1.229,0.625-2.119,0.625c-1.215,0-2.041-0.795-2.119-2.821H255.665z
		 M246.18,53.486h-0.996v7.412h0.996V53.486z M246.428,50.758c0-0.451-0.342-0.762-0.73-0.762c-0.404,0-0.762,0.311-0.762,0.762
		c0,0.436,0.357,0.717,0.762,0.717C246.086,51.475,246.428,51.193,246.428,50.758 M241.942,60.26l-0.421-0.732
		c-0.575,0.422-1.074,0.625-1.961,0.625c-1.217,0-1.994-0.857-1.994-2.93c0-1.963,0.855-2.977,1.978-2.977
		c0.716,0,1.169,0.141,1.808,0.499l0.311-0.841c-0.451-0.326-1.152-0.559-2.118-0.559c-1.667,0-3.005,1.274-3.005,3.861
		c0,2.43,1.059,3.846,2.958,3.846C240.572,61.053,241.195,60.773,241.942,60.26 M233.018,60.896V55.82
		c0-1.434-0.715-2.475-2.522-2.475c-0.888,0-1.667,0.342-2.196,0.871V53.5h-0.996v7.396h0.996v-5.762
		c0.451-0.484,1.184-0.889,1.9-0.889c1.216,0,1.839,0.561,1.839,1.652v4.998H233.018z M222.334,59.467
		c-0.374,0.311-1.06,0.7-1.761,0.7c-1.091,0-1.558-0.421-1.558-1.341c0-0.889,0.606-1.418,1.869-1.418
		c0.515,0,1.014,0.047,1.449,0.141V59.467z M223.299,60.896v-5.139c0-1.683-0.965-2.412-2.492-2.412
		c-0.92,0-1.668,0.279-2.289,0.699l0.373,0.764c0.498-0.344,1.138-0.562,1.791-0.562c1.201,0,1.652,0.482,1.652,1.59v0.873
		c-0.374-0.093-0.857-0.156-1.371-0.156c-1.886,0-2.928,0.871-2.928,2.336c0,1.278,0.918,2.164,2.195,2.164
		c0.857,0,1.604-0.232,2.104-0.777v0.621H223.299z M214.529,60.896V55.82c0-1.434-0.715-2.475-2.521-2.475
		c-0.89,0-1.668,0.342-2.199,0.871V53.5h-0.994v7.396h0.994v-5.762c0.453-0.484,1.185-0.889,1.901-0.889
		c1.216,0,1.839,0.561,1.839,1.652v4.998H214.529z M204.7,53.486h-0.995v7.412h0.995V53.486z M204.949,50.758
		c0-0.451-0.342-0.762-0.73-0.762c-0.404,0-0.763,0.311-0.763,0.762c0,0.436,0.358,0.717,0.763,0.717
		C204.607,51.475,204.949,51.193,204.949,50.758 M200.417,51.895V50.93h-5.356v9.967h1.041v-4.703h3.303V55.23h-3.303v-3.336
		H200.417z M186.663,58.75c0-0.904-0.528-1.527-1.711-1.964l-0.671-0.249c-1.152-0.421-1.434-0.795-1.434-1.294
		c0-0.606,0.451-1.013,1.559-1.013c0.639,0,1.2,0.141,1.729,0.39l0.342-0.871c-0.668-0.28-1.229-0.403-2.055-0.403
		c-1.574,0-2.554,0.715-2.554,2.039c0,0.826,0.481,1.448,1.712,1.899l0.67,0.25c1.153,0.437,1.387,0.778,1.387,1.401
		c0,0.732-0.606,1.231-1.621,1.231c-0.778,0-1.324-0.125-2.069-0.468l-0.312,0.889c0.793,0.355,1.461,0.465,2.381,0.465
		C185.684,61.053,186.663,60.307,186.663,58.75 M177.444,57.066c0,2.275-0.701,3.117-2.197,3.117c-1.34,0-2.057-0.764-2.057-2.883
		c0-2.291,0.7-3.086,2.182-3.086C176.713,54.215,177.444,54.963,177.444,57.066 M178.439,57.051c0-2.539-1.041-3.705-3.146-3.705
		c-1.964,0-3.099,1.383-3.099,3.986c0,2.555,1.025,3.721,3.13,3.721C177.305,61.053,178.439,59.652,178.439,57.051 M168.564,53.486
		h-0.995v7.412h0.995V53.486z M168.812,50.758c0-0.451-0.342-0.762-0.73-0.762c-0.404,0-0.762,0.311-0.762,0.762
		c0,0.436,0.357,0.717,0.762,0.717C168.471,51.475,168.812,51.193,168.812,50.758 M164.328,60.26l-0.421-0.732
		c-0.576,0.422-1.075,0.625-1.963,0.625c-1.214,0-1.993-0.857-1.993-2.93c0-1.963,0.857-2.977,1.979-2.977
		c0.715,0,1.168,0.141,1.807,0.499l0.311-0.841c-0.451-0.326-1.152-0.559-2.117-0.559c-1.668,0-3.004,1.274-3.004,3.861
		c0,2.43,1.056,3.846,2.957,3.846C162.957,61.053,163.58,60.773,164.328,60.26 M155.294,53.486h-0.995v7.412h0.995V53.486z
		 M155.543,50.758c0-0.451-0.343-0.762-0.73-0.762c-0.405,0-0.764,0.311-0.764,0.762c0,0.436,0.358,0.717,0.764,0.717
		C155.2,51.475,155.543,51.193,155.543,50.758 M150.871,53.499h-1.121l-2.228,6.2l-2.29-6.2h-1.136l2.881,7.522h0.981
		L150.871,53.499z M141.774,53.641c-0.249-0.156-0.639-0.279-1.168-0.279c-0.592,0-1.216,0.326-1.667,1.166V53.5h-0.995v7.396h0.995
		v-5.311c0.467-0.889,1.012-1.324,1.557-1.324c0.483,0,0.701,0.047,1.013,0.219L141.774,53.641z M133.271,56.508H129.5
		c0.078-1.498,0.81-2.293,1.964-2.293C132.601,54.215,133.193,55.12,133.271,56.508 M134.313,57.331
		c0-2.522-0.731-3.985-2.849-3.985c-1.762,0-3.006,1.182-3.006,3.768c0,2.633,1.198,3.939,3.099,3.939
		c1.075,0,1.854-0.248,2.6-0.761l-0.419-0.765c-0.576,0.422-1.23,0.625-2.119,0.625c-1.215,0-2.041-0.795-2.119-2.821H134.313z
		 M124.905,58.096c0-1.154-0.622-1.963-2.335-2.758l-0.81-0.375c-1.528-0.699-1.777-1.121-1.777-1.837
		c0-0.827,0.608-1.372,2.119-1.372c0.842,0,1.59,0.172,2.243,0.5l0.342-0.998c-0.824-0.342-1.509-0.48-2.569-0.48
		c-1.979,0-3.223,0.886-3.223,2.537c0,1.105,0.59,1.775,2.194,2.523l0.811,0.375c1.511,0.7,1.917,1.23,1.917,2.088
		c0,1.043-0.842,1.775-2.213,1.775c-1.013,0-1.932-0.141-2.803-0.452l-0.327,0.966c0.856,0.309,1.992,0.465,3.13,0.465
		C123.708,61.053,124.905,59.996,124.905,58.096"/>
	<path fill="#0F80AE" d="M202.939,26.484v7.912c0.74,0.081,1.328,0.12,1.76,0.12c2.001,0,3.464-0.335,4.384-1.003
		c0.924-0.671,1.385-1.758,1.385-3.27c0-2.562-2.063-3.846-6.194-3.846C203.812,26.398,203.369,26.424,202.939,26.484
		 M202.939,38.294v9.101h-4.389V22.686c2.926-0.125,4.639-0.188,5.129-0.188c3.908,0,6.764,0.601,8.568,1.798
		c1.809,1.198,2.71,3.069,2.71,5.611c0,5.672-3.342,8.507-10.024,8.507C204.439,38.414,203.773,38.375,202.939,38.294"/>
	<path fill="#0F80AE" d="M220.291,34.955c0,2.861,0.483,5.074,1.455,6.645c0.967,1.569,2.372,2.352,4.223,2.352
		c2.17,0,3.822-0.768,4.965-2.303c1.142-1.535,1.711-3.768,1.711-6.693c0-5.731-2.115-8.598-6.342-8.598
		c-1.94,0-3.424,0.777-4.457,2.328C220.812,30.239,220.291,32.331,220.291,34.955 M215.785,34.955c0-3.484,0.954-6.428,2.863-8.837
		c1.908-2.409,4.457-3.617,7.654-3.617c3.515,0,6.205,1.091,8.062,3.274c1.86,2.18,2.785,5.243,2.785,9.18
		c0,3.939-0.97,7.07-2.912,9.381c-1.94,2.316-4.698,3.473-8.269,3.473c-3.287,0-5.806-1.148-7.554-3.439
		C216.661,42.076,215.785,38.938,215.785,34.955"/>
	<path fill="#0F80AE" d="M243.113,26.513v6.86c0.813,0.065,1.428,0.101,1.855,0.101c1.832,0,3.17-0.26,4.02-0.776
		c0.848-0.518,1.271-1.523,1.271-3.015c0-1.213-0.454-2.065-1.364-2.549c-0.908-0.48-2.344-0.722-4.295-0.722
		C244.125,26.412,243.631,26.445,243.113,26.513 M252.486,47.394l-6.593-10.195c-0.659-0.011-1.588-0.05-2.78-0.119v10.314h-4.551
		v-24.69c0.25,0,1.199-0.042,2.848-0.128c1.653-0.083,2.983-0.127,3.994-0.127c6.271,0,9.404,2.427,9.404,7.287
		c0,1.458-0.434,2.788-1.294,3.991c-0.868,1.199-1.959,2.05-3.272,2.541l7.301,11.126H252.486z"/>
</g>
</svg>
